<?xml version="1.0" encoding="UTF-8" standalone="no"?>
<!-- Created with Inkscape (http://www.inkscape.org/) -->

<svg
   width="210mm"
   height="297mm"
   viewBox="0 0 210 297"
   version="1.1"
   id="svg1"
   inkscape:version="1.3 (0e150ed6c4, 2023-07-21)"
   sodipodi:docname="racetrack.svg"
   xmlns:inkscape="http://www.inkscape.org/namespaces/inkscape"
   xmlns:sodipodi="http://sodipodi.sourceforge.net/DTD/sodipodi-0.dtd"
   xmlns="http://www.w3.org/2000/svg"
   xmlns:svg="http://www.w3.org/2000/svg">
  <sodipodi:namedview
     id="namedview1"
     pagecolor="#ffffff"
     bordercolor="#000000"
     borderopacity="0.25"
     inkscape:showpageshadow="2"
     inkscape:pageopacity="0.0"
     inkscape:pagecheckerboard="0"
     inkscape:deskcolor="#d1d1d1"
     inkscape:document-units="mm"
     inkscape:zoom="2"
     inkscape:cx="144.25"
     inkscape:cy="246.75"
     inkscape:window-width="3440"
     inkscape:window-height="1369"
     inkscape:window-x="-8"
     inkscape:window-y="-8"
     inkscape:window-maximized="1"
     inkscape:current-layer="layer1" />
  <defs
     id="defs1" />
  <g
     inkscape:label="Layer 1"
     inkscape:groupmode="layer"
     id="layer1">
    <path
       id="rect1"
       style="fill:#000000;stroke:none;stroke-width:0.133783;fill-opacity:1"
       d="M 32.932357,42.553992 V 92.420199 H 82.798564 V 42.553992 Z m 8.362797,3.929476 c 0.431318,-0.0034 0.863858,0.01819 1.295011,0.04496 0.778693,0.05196 1.556522,0.119699 2.332158,0.206189 0.65696,0.0706 1.312061,0.153404 1.967838,0.234094 0.543126,0.05927 1.084598,0.122962 1.62264,0.218592 0.687219,0.139906 1.345918,0.420247 1.90376,0.84956 0.119155,0.0917 0.230689,0.192145 0.346232,0.288355 0.348686,0.321591 0.671884,0.671771 0.939478,1.064534 0.195048,0.286288 0.256163,0.429431 0.413928,0.736906 0.310484,0.697624 0.560386,1.419515 0.840259,2.129586 0.206361,0.454599 0.472226,0.880019 0.766878,1.282092 0.02531,0.02725 0.04488,0.06123 0.07596,0.08165 0.0118,0.0078 -0.0051,-0.02857 -0.01292,-0.04031 -0.03782,-0.05661 -0.123218,-0.120473 -0.06098,-0.120406 0.05819,6e-5 0.115209,0.01676 0.172599,0.02636 0.1232,0.0206 0.246427,0.04265 0.369487,0.06408 0.334875,0.03196 0.671233,0.08426 1.008724,0.102319 0.0068,-0.01495 0.02081,-0.03152 0.02894,-0.04599 0.115175,-0.204831 0.241297,-0.404264 0.363802,-0.604614 0.399538,-0.619068 0.82238,-1.222675 1.235067,-1.832963 0.437879,-0.657369 0.941762,-1.261287 1.503268,-1.815393 0.485658,-0.475363 1.039995,-0.86086 1.661397,-1.138432 0.39212,-0.175154 0.632134,-0.237455 1.035596,-0.363285 1.060966,-0.313476 2.198306,-0.333971 3.22926,0.110587 0.240673,0.103781 0.462032,0.247632 0.692981,0.371554 0.213296,0.169842 0.440515,0.323396 0.639754,0.50953 0.578179,0.540152 1.041095,1.2411 1.342037,1.970939 0.290403,0.70428 0.325462,0.998223 0.487826,1.724442 0.252653,1.383652 0.313338,2.791416 0.361218,4.194059 0.03844,1.065767 0.08665,2.131444 0.156063,3.195671 0.06683,0.856219 0.09664,1.714534 0.14211,2.571936 0.02705,0.570747 0.05863,1.140661 0.10852,1.709456 0.123005,-0.05602 0.333922,-0.125454 0.360702,-0.216524 0.227467,-0.349744 0.344826,-0.750804 0.464054,-1.147217 0.26094,-1.013499 0.483114,-2.035629 0.751375,-3.047359 0.287057,-0.992811 0.540698,-1.995127 0.766879,-3.003434 0.159451,-0.735301 0.294786,-1.475266 0.429431,-2.215369 0.124843,-0.671956 0.274821,-1.338998 0.481624,-1.990576 0.358671,-1.005832 0.915835,-1.64013 1.982308,-1.988509 0.586353,-0.19154 0.973626,-0.08129 1.537374,-5.17e-4 0.22197,0.08038 0.452041,0.141799 0.666109,0.241329 0.701496,0.326169 1.27891,0.89804 1.72496,1.518254 0.1073,0.149197 0.198773,0.308963 0.298173,0.463537 0.56152,0.941242 0.807087,2.004626 1.019059,3.06648 0.185536,0.987029 0.366283,1.974606 0.557589,2.960543 0.162115,0.892558 0.323972,1.785406 0.471805,2.680456 0.132291,0.817326 0.205008,1.642325 0.28267,2.466 0.0974,0.895976 0.16599,1.791908 0.19017,2.692858 -0.0025,1.218057 -0.0217,2.436443 -0.05581,3.654041 -0.03863,1.105678 -0.06737,2.211982 -0.08733,3.318144 -0.01298,0.893046 -0.01644,1.785714 -0.04651,2.678389 -0.03504,0.785907 -0.09569,1.569911 -0.15968,2.353862 -0.04055,0.49718 -0.06482,0.995159 -0.110588,1.491898 -0.05292,0.614469 -0.193851,1.209846 -0.387573,1.793689 -0.235138,0.678074 -0.576731,1.306423 -0.975134,1.900659 -0.285573,0.409744 -0.608369,0.791358 -0.996322,1.10846 -0.249982,0.20433 -0.382964,0.278528 -0.647505,0.445967 -0.43151,0.24498 -0.88953,0.45479 -1.376144,0.56379 -0.392441,0.0879 -0.4987,0.08739 -0.875399,0.12299 -0.809711,0.02827 -1.618495,-0.04743 -2.427242,-0.08217 -1.099506,-0.04344 -2.200378,-0.04863 -3.300573,-0.05633 -1.305206,-0.01616 -2.610052,-0.0085 -3.915007,0.01809 -1.095426,0.01489 -2.189996,0.05858 -3.285071,0.08785 -1.216764,0.02789 -2.432841,0.07226 -3.648872,0.122473 -1.048143,0.03687 -2.091635,0.142097 -3.136243,0.228927 -0.991641,0.102242 -1.985838,0.164472 -2.98173,0.204122 -0.998601,0.02865 -1.996717,0.0774 -2.995166,0.110587 -0.748764,0.01868 -1.497845,0.04494 -2.246892,0.03514 -0.605121,-0.03034 -1.208684,-0.110852 -1.788521,-0.291972 -0.38507,-0.12028 -0.5202,-0.19587 -0.886251,-0.362768 -0.728722,-0.357859 -1.416549,-0.786948 -2.061889,-1.277958 -0.588815,-0.486747 -1.122929,-1.03871 -1.586467,-1.646411 -0.345395,-0.452819 -0.432472,-0.612583 -0.733288,-1.087789 -0.634185,-1.05435 -1.073168,-2.203561 -1.4087,-3.38274 -0.233923,-0.943019 -0.280143,-1.924406 -0.01654,-2.868558 0.191827,-0.687066 0.333816,-0.869269 0.667142,-1.485181 0.683705,-1.037733 1.582509,-1.925573 2.666504,-2.54248 0.220374,-0.125416 0.452687,-0.22832 0.679029,-0.342615 1.347559,-0.597337 2.809479,-0.75878 4.264339,-0.84491 1.260664,-0.05297 2.522365,-0.01077 3.783231,0.01395 1.045953,0.02129 2.092179,0.03092 3.13831,0.03772 0.834918,0.0011 1.674339,0.01436 2.503723,-0.09457 0.07901,-0.04511 0.376116,-0.01216 0.452686,-0.127641 0.0082,-0.01239 -0.0326,-0.02403 -0.02481,-0.03669 0.01765,-0.0287 0.04484,-0.05075 0.06718,-0.07597 0.02125,-0.01322 0.2555,-0.413749 0.15658,-0.384989 -0.01578,0.03627 -0.0116,0.092 -0.04754,0.10852 -0.02408,0.01107 -0.01467,-0.05091 -0.02584,-0.07493 -0.0096,-0.02071 -0.02458,-0.03872 -0.03617,-0.05839 -0.07212,-0.122361 -0.143352,-0.224041 -0.239262,-0.329695 -0.578282,-0.623278 -1.312131,-1.058892 -2.04432,-1.474846 -0.845721,-0.468027 -1.728457,-0.864226 -2.639632,-1.185457 -0.94769,-0.251364 -1.918642,-0.411255 -2.886128,-0.566891 -0.851966,-0.130334 -1.713577,-0.17377 -2.573487,-0.21394 -0.802161,-0.03539 -1.605331,-0.04084 -2.408122,-0.04754 -0.610053,-0.02319 -1.224468,0.03133 -1.832446,-0.04083 -0.166509,-0.01976 -0.331163,-0.0549 -0.49661,-0.08216 -0.698362,-0.149963 -1.380114,-0.402391 -1.973523,-0.806153 -0.117562,-0.07999 -0.227265,-0.170538 -0.341065,-0.255798 -0.568578,-0.454275 -0.954745,-1.05894 -1.257287,-1.71049 -0.11568,-0.257368 -0.21583,-0.528509 -0.33383,-0.780831 -0.106501,-0.161999 -0.215572,-0.38689 -0.316777,-0.574642 -0.175935,-0.32048 -0.286449,-0.670083 -0.403076,-1.014925 -0.111152,-0.356338 -0.209627,-0.715605 -0.283187,-1.081588 -0.0572,-0.286119 -0.06959,-0.578605 -0.10852,-0.86558 -0.03178,-0.222888 -0.04901,-0.447404 -0.06615,-0.671793 -0.0078,0.01388 -0.02656,-0.103773 -0.04031,-0.155547 -0.04433,-0.166994 -0.03916,-0.150056 -0.08217,-0.327111 -0.07609,-0.292614 -0.1036,-0.593772 -0.15658,-0.890385 -0.04216,-0.244411 -0.0977,-0.486642 -0.138493,-0.731739 -0.04949,-0.310291 -0.0679,-0.623833 -0.08062,-0.93741 -0.0037,-0.310899 -0.0069,-0.26967 -0.03204,-0.519348 -0.04958,-0.226997 -0.07853,-0.460908 -0.106454,-0.691948 0.0019,0.01956 0.008,0.03947 0.0052,0.05891 -0.0018,0.01251 -0.0056,-0.02486 -0.0083,-0.03721 -0.0073,-0.03369 -0.01449,-0.06696 -0.02119,-0.100769 -0.02909,-0.146687 -0.05168,-0.293688 -0.07183,-0.441833 -0.0054,-0.04959 -0.01114,-0.09924 -0.01654,-0.148828 -0.127277,-1.164668 0.08627,-2.064015 0.479557,-2.686658 0.0014,-0.02036 4.48e-4,-0.04061 0.0021,-0.06098 0.07433,-0.567034 0.268312,-1.10088 0.504879,-1.617989 0.229183,-0.483598 0.545897,-0.91794 0.95188,-1.268657 0.245794,-0.212334 0.391826,-0.290815 0.653707,-0.453202 0.621255,-0.356889 1.310903,-0.536536 2.009696,-0.662492 0.428239,-0.07226 0.858525,-0.100463 1.289844,-0.103869 z m -0.635104,4.411617 c 0.0054,-0.02202 -0.02235,0.03922 -0.03359,0.05891 -0.0079,0.0154 -0.016,0.03049 -0.02274,0.04651 0.02187,-0.0352 0.04765,-0.06998 0.05633,-0.10542 z m -0.132291,0.08837 c 4.27e-4,0.03088 0.0046,0.06164 0.0062,0.0925 9.2e-5,-0.02208 6.53e-4,-0.04411 -5.17e-4,-0.06615 -5e-4,-0.0089 -0.0058,-0.03525 -0.0057,-0.02635 z m 0.03721,0.07648 c -5.59e-4,0.0015 -0.0019,0.0082 -0.0026,0.01034 8.89e-4,-0.0011 0.0017,-0.002 0.0026,-0.0031 4.67e-4,-0.004 8.53e-4,-0.0095 0,-0.0072 z m 0.973067,0.09715 c -0.253201,-0.0048 -0.506398,0.0041 -0.75861,0.04289 -0.03438,0.0041 -0.131125,0.02592 -0.233061,0.04806 0.0082,0.0949 0.01471,0.189867 0.01964,0.284737 0.02757,0.326326 0.05213,0.652625 0.06666,0.979785 0.02542,0.312822 0.06808,0.62357 0.115238,0.933793 0.06993,0.474805 0.131977,0.951216 0.192237,1.427303 0.1205,0.952064 0.0094,1.7196 -0.235128,2.314071 0.04738,0.194871 0.08705,0.391121 0.09767,0.592728 0.01043,0.176241 0.02625,0.352324 0.05168,0.5271 0.02741,0.204331 0.04742,0.408901 0.0677,0.613916 0.01583,0.164181 0.09813,0.316581 0.125574,0.478007 0.05278,0.164332 -0.0152,-0.04436 0.09043,0.261483 0.0082,0.02367 0.04009,0.06999 0.0248,0.07338 0.118317,0.22289 0.236467,0.445632 0.362252,0.664559 0.146584,0.308597 0.275182,0.624651 0.407727,0.939478 0.0054,0.02474 0.0044,0.0324 0.0015,0.03617 0.07497,0.03846 0.15493,0.07205 0.161231,0.05064 0.146121,0.05882 0.268554,0.03655 0.436149,0.03721 0.35768,0.0014 0.71513,0.0034 1.072803,0.0062 0.862803,0.0072 1.726371,0.01346 2.588472,0.05219 1.036047,0.0488 2.073186,0.107079 3.099036,0.2682 1.248567,0.202037 2.504361,0.407194 3.715018,0.780314 1.168879,0.421649 2.308063,0.921929 3.392041,1.532207 0.53748,0.310194 0.795009,0.445477 1.313615,0.799951 0.841404,0.575105 1.617062,1.247812 2.241207,2.057239 0.362761,0.550172 0.474601,0.661155 0.724504,1.259871 0.371204,0.889335 0.489884,1.833523 0.352433,2.78691 -0.05096,0.196966 -0.09108,0.396684 -0.152445,0.590662 -0.270292,0.854498 -0.791346,1.602805 -1.417485,2.233455 -0.366042,0.320888 -0.500464,0.465078 -0.93276,0.72502 -0.657167,0.395162 -1.39656,0.60534 -2.152323,0.7028 -1.027775,0.118449 -2.06166,0.144637 -3.095935,0.128157 -1.066495,-0.007 -2.132974,-0.01706 -3.199288,-0.03876 -1.142711,-0.02244 -2.286593,-0.06134 -3.429248,-0.02015 -0.839016,0.04384 -1.690227,0.10204 -2.488737,0.384473 -0.5408,0.231669 -0.96292,0.542488 -1.329118,1.008207 -0.244056,0.327978 -0.294704,0.285832 -0.200504,0.761711 0.204011,0.751602 0.480896,1.482954 0.86868,2.160591 0.343748,0.559383 0.720574,1.09867 1.227832,1.524455 0.360805,0.299044 0.780459,0.517595 1.190109,0.741557 0.06772,0.03679 0.160308,0.10361 0.236678,0.12454 0.166983,0.04578 0.342385,0.05804 0.513147,0.08165 0.671911,0.0144 1.344157,-0.02284 2.015897,-0.03359 0.988631,-0.03273 1.976924,-0.08092 2.965711,-0.109037 0.92839,-0.03633 1.854794,-0.09661 2.779158,-0.192236 1.109211,-0.09197 2.217081,-0.201983 3.33003,-0.240813 1.238747,-0.05114 2.478111,-0.09649 3.717602,-0.125057 1.104973,-0.02944 2.209198,-0.07339 3.314527,-0.08837 1.347621,-0.02735 2.695287,-0.03557 4.043164,-0.01912 1.156399,0.0082 2.313386,0.01458 3.469039,0.06098 0.61322,0.02654 1.225698,0.06281 1.838647,0.09353 0.03396,-0.0013 0.06887,-0.01253 0.101803,-0.0041 0.01353,0.0035 -0.02787,0.0095 -0.03617,0.02067 -0.02302,0.031 0.195466,-0.0518 0.121956,-0.02584 0.02048,-0.01081 0.04011,-0.02314 0.0615,-0.03204 0.0418,-0.0173 -0.02575,0.06662 -0.0041,0.04341 0.03536,-0.03796 0.130295,-0.160775 0.163815,-0.203605 0.04534,-0.06579 0.09943,-0.125493 0.140043,-0.194303 0.116455,-0.197319 0.206862,-0.411694 0.291972,-0.623735 0.09682,-0.215305 0.111041,-0.454663 0.146761,-0.685229 0.04463,-0.479854 0.06486,-0.961596 0.106453,-1.441773 0.05795,-0.709958 0.114078,-1.419988 0.147278,-2.131653 0.02952,-0.868116 0.03074,-1.736534 0.04444,-2.605009 0.02031,-1.122058 0.04915,-2.243601 0.08837,-3.365169 0.03238,-1.13326 0.04769,-2.267154 0.05529,-3.400826 -0.0196,-0.794769 -0.08594,-1.584608 -0.171049,-2.375049 -0.0675,-0.71622 -0.128404,-1.433607 -0.241329,-2.144572 -0.139967,-0.851616 -0.295509,-1.700888 -0.448551,-2.550232 -0.0014,-0.0074 -0.0027,-0.01482 -0.0041,-0.02222 -0.111288,0.428388 -0.224157,0.856299 -0.347266,1.281576 -0.289513,1.084051 -0.512734,2.184727 -0.814937,3.265434 -0.07398,0.225557 -0.139659,0.453882 -0.222209,0.676444 -0.41914,1.13 -1.058682,2.148283 -2.024166,2.888196 -0.185025,0.120146 -0.364321,0.250651 -0.555521,0.360702 -0.825597,0.475192 -1.776112,0.702652 -2.722832,0.716752 -0.203374,-0.01486 -0.408374,-0.01601 -0.610298,-0.04444 -0.846598,-0.119183 -1.62846,-0.484865 -2.314071,-0.98547 -0.164506,-0.149069 -0.347223,-0.280018 -0.49351,-0.447001 -0.615658,-0.702758 -0.842847,-1.471998 -0.960665,-2.371948 -0.08131,-0.769329 -0.123093,-1.54083 -0.157613,-2.313554 -0.04377,-0.838504 -0.07346,-1.677767 -0.138493,-2.515092 -0.07166,-1.112264 -0.123827,-2.225471 -0.163297,-3.339331 -0.03801,-1.131119 -0.08024,-2.266437 -0.263033,-3.385323 -0.01,-0.05345 -0.102053,-0.569746 -0.135393,-0.684196 -0.03706,-0.127211 -0.09765,-0.247358 -0.153479,-0.366903 -0.04681,-0.100303 -0.06915,-0.07241 -0.0067,-0.108003 0.03532,-0.0063 0.177037,-0.02727 0.195337,-0.04858 0.07728,-0.09 -0.751287,0.06808 -0.359151,0.02945 -0.132582,0.03759 -0.263741,0.07984 -0.396358,0.117306 -0.02191,0.0062 -0.04446,0.01245 -0.06718,0.01395 -0.0085,5e-4 -0.01719,-0.01235 -0.02429,-0.0078 -0.06056,0.03952 -0.250525,0.207905 -0.304375,0.254765 -0.34214,0.322027 -0.624195,0.696263 -0.889868,1.083138 -0.373052,0.551405 -0.75263,1.097953 -1.119311,1.653646 -0.197605,0.322617 -0.382811,0.655883 -0.605648,0.962215 -0.409164,0.562475 -0.890272,1.049715 -1.503267,1.392163 -0.697126,0.30706 -0.765674,0.392754 -1.534274,0.503328 -0.877,0.126169 -1.76629,-0.04982 -2.633431,-0.157613 -0.561361,-0.113604 -0.924369,-0.164338 -1.46761,-0.371037 -0.801794,-0.305072 -1.484731,-0.812413 -1.990577,-1.504817 -0.512949,-0.721766 -0.981682,-1.477387 -1.320332,-2.298568 -0.23065,-0.58776 -0.448953,-1.180766 -0.680062,-1.768367 -0.01026,-0.02543 -0.02084,-0.05048 -0.03101,-0.07596 -0.0059,-0.01474 -0.02105,-0.02909 -0.01705,-0.04444 0.0024,-0.0093 0.03102,0.02062 0.02532,0.01292 -0.06564,-0.08882 -0.147985,-0.167474 -0.221175,-0.250114 0.0055,-2.53e-4 0.02004,0.0033 0.01654,-0.001 -0.01443,-0.01759 -0.07545,-0.04435 -0.05271,-0.04341 0.02438,0.001 0.04616,0.0134 0.06821,0.02636 -0.02321,-0.0068 -0.0498,-0.01356 -0.05219,-0.0279 -0.0055,-0.03306 0.06612,0.02174 0.09922,0.01654 0.02359,-0.0037 -0.0454,-0.01409 -0.06821,-0.02119 -0.454645,-0.08182 -0.913731,-0.127618 -1.372526,-0.180868 -0.638991,-0.07891 -1.277535,-0.15963 -1.917712,-0.22841 -0.699168,-0.07916 -1.400765,-0.138165 -2.102714,-0.186035 -0.252963,-0.01601 -0.506443,-0.0345 -0.759644,-0.03927 z m 13.857552,2.454631 c -0.02065,0.0065 -0.04317,0.02642 -0.06459,0.04341 0.0667,0.0025 0.133177,0.01442 0.199987,0.0124 0.03636,-0.0011 0.0957,0.0063 0.104904,-0.02894 0.0082,-0.03126 -0.09988,-0.01952 -0.202572,-0.01292 -0.01094,-0.0158 -0.02377,-0.01835 -0.03772,-0.01395 z m 20.58479,0.404626 c 0.003,-0.0087 -0.0103,0.01514 -0.0155,0.02274 -0.0042,0.01195 -0.0057,0.0247 -0.0098,0.03669 0.008,-0.02019 0.01822,-0.0386 0.02532,-0.05943 z m -34.859888,5.634798 c 0.0027,0.0067 0.0061,0.01314 0.0093,0.01964 -0.0011,-0.0038 -0.0015,-0.0086 -0.0031,-0.01188 -0.0014,-0.0029 -0.0074,-0.01075 -0.0062,-0.0078 z m 0.678512,1.63711 c -0.0036,0.0071 0.05335,0.04351 0.118339,0.07803 -0.02283,-0.02242 -0.06064,-0.07118 -0.09457,-0.07441 -0.0151,-0.0048 -0.02262,-0.0059 -0.02377,-0.0036 z m 26.544633,3.498494 c 0.003,0.0096 0.0031,0.01899 0.0067,0.02894 0.0038,0.0105 0.01965,0.03981 0.01705,0.02894 -0.0049,-0.0208 -0.01765,-0.03768 -0.02377,-0.05788 z"
       inkscape:export-filename="racetrack.png"
       inkscape:export-xdpi="100"
       inkscape:export-ydpi="100" />
    <path
       style="fill:#ff0000;fill-opacity:1;stroke:none;stroke-width:0.1"
       id="path11"
       sodipodi:type="arc"
       sodipodi:cx="59.167446"
       sodipodi:cy="82.599609"
       sodipodi:rx="0.56223959"
       sodipodi:ry="0.54570311"
       sodipodi:start="0"
       sodipodi:end="5.7579503"
       sodipodi:open="true"
       sodipodi:arc-type="arc"
       d="m 59.729686,82.599609 a 0.56223959,0.54570311 0 0 1 -0.488625,0.541006 0.56223959,0.54570311 0 0 1 -0.616577,-0.399336 0.56223959,0.54570311 0 0 1 0.327165,-0.645577 0.56223959,0.54570311 0 0 1 0.70225,0.230283" />
    <path
       style="fill:#ff0000;fill-opacity:1;stroke:none;stroke-width:0.1"
       id="path12"
       sodipodi:type="arc"
       sodipodi:cx="75.968491"
       sodipodi:cy="84.881638"
       sodipodi:rx="0.42994791"
       sodipodi:ry="0.41341144"
       sodipodi:start="0"
       sodipodi:end="5.7579503"
       sodipodi:open="true"
       sodipodi:arc-type="arc"
       d="m 76.398439,84.881638 a 0.42994791,0.41341144 0 0 1 -0.373655,0.409852 0.42994791,0.41341144 0 0 1 -0.4715,-0.302527 0.42994791,0.41341144 0 0 1 0.250185,-0.489073 0.42994791,0.41341144 0 0 1 0.537015,0.174456" />
    <path
       style="fill:#ff0000;fill-opacity:1;stroke:none;stroke-width:0.1"
       id="path13"
       sodipodi:type="arc"
       sodipodi:cx="51.792187"
       sodipodi:cy="63.26849"
       sodipodi:rx="0.72760415"
       sodipodi:ry="0.69453126"
       sodipodi:start="0"
       sodipodi:end="5.7579503"
       sodipodi:open="true"
       sodipodi:arc-type="arc"
       d="m 52.519791,63.26849 a 0.72760415,0.69453126 0 0 1 -0.632338,0.688552 0.72760415,0.69453126 0 0 1 -0.797924,-0.508245 0.72760415,0.69453126 0 0 1 0.423391,-0.821644 0.72760415,0.69453126 0 0 1 0.908794,0.293088" />
    <path
       style="fill:#ff0000;fill-opacity:1;stroke:none;stroke-width:0.1"
       id="path14"
       sodipodi:type="arc"
       sodipodi:cx="75.96022"
       sodipodi:cy="84.898178"
       sodipodi:rx="0.5208984"
       sodipodi:ry="0.51263022"
       sodipodi:start="0"
       sodipodi:end="5.7579503"
       sodipodi:open="true"
       sodipodi:arc-type="arc"
       d="m 76.481119,84.898178 a 0.5208984,0.51263022 0 0 1 -0.452697,0.508217 0.5208984,0.51263022 0 0 1 -0.57124,-0.375133 0.5208984,0.51263022 0 0 1 0.303109,-0.606451 0.5208984,0.51263022 0 0 1 0.650614,0.216326" />
    <path
       style="fill:#ff0000;fill-opacity:1;stroke:none;stroke-width:0.1"
       id="path15"
       sodipodi:type="arc"
       sodipodi:cx="68.006737"
       sodipodi:cy="67.258377"
       sodipodi:rx="0.74835467"
       sodipodi:ry="0.84189904"
       sodipodi:start="0"
       sodipodi:end="5.7579503"
       sodipodi:open="true"
       sodipodi:arc-type="arc"
       d="m 68.755091,67.258377 a 0.74835467,0.84189904 0 0 1 -0.650371,0.834652 0.74835467,0.84189904 0 0 1 -0.82068,-0.616087 0.74835467,0.84189904 0 0 1 0.435466,-0.995982 0.74835467,0.84189904 0 0 1 0.934712,0.355275" />
    <path
       style="fill:#ff0000;fill-opacity:1;stroke:none;stroke-width:0.106239"
       id="path16"
       sodipodi:type="arc"
       sodipodi:cx="41.481251"
       sodipodi:cy="49.154167"
       sodipodi:rx="1"
       sodipodi:ry="1"
       sodipodi:start="0"
       sodipodi:end="5.7579503"
       sodipodi:open="true"
       sodipodi:arc-type="arc"
       d="m 42.481251,49.154167 a 1,1 0 0 1 -0.869068,0.991392 1,1 0 0 1 -1.096646,-0.731783 1,1 0 0 1 0.581897,-1.183018 1,1 0 0 1 1.249023,0.421993" />
    <path
       style="fill:#ff0000;fill-opacity:1;stroke:none;stroke-width:0.106239"
       id="path16-0"
       sodipodi:type="arc"
       sodipodi:cx="51.733856"
       sodipodi:cy="63.309376"
       sodipodi:rx="1"
       sodipodi:ry="1"
       sodipodi:start="0"
       sodipodi:end="5.7579503"
       sodipodi:open="true"
       sodipodi:arc-type="arc"
       d="m 52.733856,63.309376 a 1,1 0 0 1 -0.869068,0.991391 1,1 0 0 1 -1.096646,-0.731782 1,1 0 0 1 0.581897,-1.183018 1,1 0 0 1 1.249023,0.421992" />
    <path
       style="fill:#ff0000;fill-opacity:1;stroke:none;stroke-width:0.106239"
       id="path16-5"
       sodipodi:type="arc"
       sodipodi:cx="67.939583"
       sodipodi:cy="67.211983"
       sodipodi:rx="1"
       sodipodi:ry="1"
       sodipodi:start="0"
       sodipodi:end="5.7579503"
       sodipodi:open="true"
       sodipodi:arc-type="arc"
       d="m 68.939583,67.211983 a 1,1 0 0 1 -0.869068,0.991391 1,1 0 0 1 -1.096646,-0.731782 1,1 0 0 1 0.581897,-1.183018 1,1 0 0 1 1.249023,0.421992" />
    <path
       style="fill:#ff0000;fill-opacity:1;stroke:none;stroke-width:0.106239"
       id="path16-3"
       sodipodi:type="arc"
       sodipodi:cx="75.810944"
       sodipodi:cy="84.476044"
       sodipodi:rx="1"
       sodipodi:ry="1"
       sodipodi:start="0"
       sodipodi:end="5.7579503"
       sodipodi:open="true"
       sodipodi:arc-type="arc"
       d="m 76.810944,84.476044 a 1,1 0 0 1 -0.869069,0.991391 1,1 0 0 1 -1.096645,-0.731782 1,1 0 0 1 0.581897,-1.183019 1,1 0 0 1 1.249023,0.421993" />
    <path
       style="fill:#ff0000;fill-opacity:1;stroke:none;stroke-width:0.106239"
       id="path16-01"
       sodipodi:type="arc"
       sodipodi:cx="58.943748"
       sodipodi:cy="82.623962"
       sodipodi:rx="1"
       sodipodi:ry="1"
       sodipodi:start="0"
       sodipodi:end="5.7579503"
       sodipodi:open="true"
       sodipodi:arc-type="arc"
       d="m 59.943748,82.623962 a 1,1 0 0 1 -0.869068,0.991392 1,1 0 0 1 -1.096645,-0.731782 1,1 0 0 1 0.581897,-1.183019 1,1 0 0 1 1.249023,0.421993" />
    <path
       style="fill:#f9f9f9;stroke-width:0.188976"
       d="m 173.25,327.47217 c -7.86831,-1.34749 -16.34223,-6.94183 -21.47135,-14.17503 -4.84777,-6.83646 -7.99476,-15.30208 -8.00987,-21.54714 -0.009,-3.59783 0.17836,-4.39479 1.86061,-7.92657 3.74213,-7.85635 11.24322,-13.42782 20.78498,-15.43813 4.37627,-0.92202 6.76376,-1.02433 25.13304,-1.07704 21.31127,-0.0612 21.95259,-0.12743 21.95259,-2.26801 0,-2.1867 -8.76776,-8.22108 -15.99399,-11.00781 -6.52809,-2.5175 -13.68709,-3.55216 -28.00601,-4.04757 -7.0125,-0.24264 -13.65,-0.70145 -14.75,-1.01959 -3.19438,-0.9239 -6.57111,-2.81973 -8.55384,-4.80246 -2.86388,-2.86388 -7.4679,-12.88533 -8.45915,-18.41282 -0.44385,-2.475 -1.13469,-6.2778 -1.5352,-8.45067 -2.03276,-11.02808 -2.50972,-21.25548 -1.13321,-24.29933 0.43526,-0.9625 1.16699,-3.02819 1.62605,-4.59043 2.69165,-9.16 9.86167,-12.89172 23.53092,-12.24694 9.11265,0.42984 22.9612,2.23421 26.06749,3.39642 2.98675,1.11749 6.56254,4.07417 8.72047,7.21062 0.8179,1.18877 2.35808,4.39636 3.42262,7.12798 1.06454,2.73161 2.50792,5.80892 3.20751,6.83845 1.2593,1.85324 1.31101,1.87401 5.18916,2.08429 2.19615,0.11909 3.64366,0.0282 3.29464,-0.20698 -0.45449,-0.30617 0.39517,-1.92243 3.14756,-5.98742 6.12984,-9.05311 9.6223,-12.41762 15.15252,-14.59743 13.10711,-5.16634 24.02353,2.03637 26.54733,17.51605 0.55239,3.38805 1.11212,11.83204 2.03536,30.70539 0.30941,6.325 0.65535,11.79095 0.76875,12.14656 0.40928,1.28344 2.12765,-0.3563 2.89946,-2.7668 1.51188,-4.72185 5.92327,-22.56031 7.63646,-30.87976 1.92605,-9.3531 2.95571,-12.1933 5.29792,-14.61378 4.92428,-5.08883 13.2986,-3.33457 18.62564,3.90171 2.89207,3.9286 4.1656,8.06346 6.76426,21.96207 3.68018,19.68289 3.76069,20.68221 3.63321,45.09812 -0.13117,25.123 -0.96673,38.94089 -2.65958,43.98234 -2.92554,8.71246 -9.09041,14.71525 -16.26516,15.83753 -1.35366,0.21174 -7.86119,0.22018 -14.46119,0.0188 -14.07747,-0.42962 -46.63923,0.28979 -59.5,1.31457 -15.42604,1.22919 -33.01585,1.81753 -36.5,1.22085 z m 114.99826,-4.68922 c 1.8527,-0.77411 2.58666,-2.38045 2.05519,-4.49799 -0.4754,-1.89413 -1.69183,-2.78496 -3.80287,-2.78496 -1.48732,0 -2.16487,0.30113 -2.96429,1.31743 -2.1009,2.67086 -0.83797,5.60973 2.85477,6.64309 0.0776,0.0217 0.91333,-0.2832 1.8572,-0.67757 z m -62.52384,-7.80279 c 1.20977,-1.18787 1.22179,-4.15837 0.0222,-5.48391 -0.4678,-0.51692 -1.44592,-1.01764 -2.17358,-1.1127 -2.7818,-0.3634 32.29957,-1.00804 44.91385,-0.8253 l 13.23687,0.19175 1.13736,-2.0557 c 1.51898,-2.74545 2.02043,-9.11138 2.65413,-33.6943 0.52962,-20.54557 0.27065,-26.969 -1.55219,-38.5 -0.54341,-3.4375 -1.12673,-6.69631 -1.29629,-7.24179 -0.28822,-0.92728 -0.33749,-0.91282 -0.75737,0.22224 -0.24701,0.66771 -1.32175,4.71402 -2.38832,8.99179 -2.46475,9.88554 -3.57381,12.81137 -6.21282,16.39015 -2.29092,3.10673 -4.60158,4.92485 -8.55824,6.73399 -2.04215,0.93374 -3.37131,1.14405 -7.25759,1.14835 -4.37446,0.005 -5.02708,-0.12729 -8.10401,-1.64073 -5.30107,-2.60743 -7.8511,-6.34147 -8.60745,-12.604 -0.2868,-2.37474 -0.96393,-14.10882 -1.77446,-30.75 -0.26789,-5.5 -0.74622,-11.35 -1.06296,-13 -0.31675,-1.65 -0.58362,-3.3046 -0.59305,-3.6769 -0.0263,-1.03954 -3.25761,-0.33312 -4.72097,1.0321 -0.6749,0.62964 -3.25387,4.1823 -5.73105,7.8948 -5.51201,8.26072 -7.17927,10.04068 -11.01901,11.76385 -2.50514,1.12425 -3.67358,1.33921 -7.1237,1.31058 -5.10927,-0.0424 -10.65425,-1.16279 -14.10115,-2.84921 -4.44718,-2.1758 -8.22666,-7.36064 -11.72179,-16.08044 -1.07141,-2.67299 -2.13229,-5.04426 -2.3575,-5.26947 -1.08616,-1.08616 -25.75714,-3.31655 -27.03689,-2.44428 -0.613,0.41782 -0.5871,1.52624 0.18698,8.00092 0.57604,4.81823 0.7757,8.64691 0.55626,10.66698 -0.77206,7.10724 -0.23926,10.68961 2.4579,16.52607 l 1.79072,3.875 6.85986,0.0118 c 8.39801,0.0145 17.05717,0.65673 23.8218,1.76683 l 5.09616,0.83631 -1.40405,1.40404 c -3.30486,3.30486 0.0251,8.06857 4.37085,6.2528 1.96041,-0.81911 2.66727,-2.68121 1.84486,-4.86 -0.6462,-1.71199 -0.47056,-1.7236 3.49382,-0.23079 11.10704,4.18242 21.38631,11.4408 25.23507,17.81897 6.08041,10.07643 1.26414,23.00639 -10.27624,27.58803 -2.73011,1.08387 -3.55828,1.13043 -25.32241,1.42361 -19.29346,0.2599 -22.80755,0.42168 -24.65803,1.1352 -2.86443,1.10448 -4.99214,2.66482 -6.08555,4.4628 -0.80699,1.32698 -0.82842,1.72202 -0.21878,4.03305 0.93453,3.54262 3.30692,8.20401 5.44887,10.7062 0.98819,1.15439 3.16951,2.93282 4.84737,3.95206 l 3.05066,1.85318 12.05773,-0.33798 c 6.63175,-0.18589 15.65773,-0.66966 20.05773,-1.07503 4.4,-0.40537 9.40625,-0.73796 11.125,-0.73908 L 221,308.5 l -1,1 c -0.65323,0.65323 -1,1.66666 -1,2.9225 0,3.68607 4.01856,5.21455 6.72442,2.55766 z m 33.25586,-57.46961 c 0.50299,-0.26919 1.1515,-1.16919 1.44112,-2 1.39274,-3.99522 -2.80305,-7.07077 -6.10397,-4.47426 -2.6714,2.10132 -1.06361,6.96371 2.3026,6.96371 0.79514,0 1.85725,-0.22025 2.36025,-0.48945 z m -99.25585,-69.03039 c 1.22017,-1.19809 1.21837,-4.16213 -0.003,-5.51211 C 159.14401,182.33039 158.18887,182 156.92251,182 154.36913,182 153,183.36913 153,185.92251 c 0,3.68607 4.01856,5.21454 6.72443,2.55765 z"
       id="path1"
       transform="scale(0.26458333)" />
  </g>
</svg>
