<?xml version="1.0" encoding="UTF-8" standalone="no"?>
<!-- Created with Inkscape (http://www.inkscape.org/) -->

<svg
   width="234.71783mm"
   height="159.52222mm"
   viewBox="0 0 234.71783 159.52222"
   version="1.1"
   id="svg1"
   xml:space="preserve"
   inkscape:version="1.3 (0e150ed6c4, 2023-07-21)"
   sodipodi:docname="race_track.svg"
   xmlns:inkscape="http://www.inkscape.org/namespaces/inkscape"
   xmlns:sodipodi="http://sodipodi.sourceforge.net/DTD/sodipodi-0.dtd"
   xmlns="http://www.w3.org/2000/svg"
   xmlns:svg="http://www.w3.org/2000/svg"><sodipodi:namedview
     id="namedview1"
     pagecolor="#ffffff"
     bordercolor="#000000"
     borderopacity="0.25"
     inkscape:showpageshadow="2"
     inkscape:pageopacity="0.0"
     inkscape:pagecheckerboard="0"
     inkscape:deskcolor="#d1d1d1"
     inkscape:document-units="mm"
     inkscape:zoom="2"
     inkscape:cx="2128.75"
     inkscape:cy="843.75"
     inkscape:window-width="3440"
     inkscape:window-height="1369"
     inkscape:window-x="-8"
     inkscape:window-y="-8"
     inkscape:window-maximized="1"
     inkscape:current-layer="layer1" /><defs
     id="defs1" /><g
     inkscape:label="Layer 1"
     inkscape:groupmode="layer"
     id="layer1"
     transform="translate(-321.55091,-84.147512)"><path
       style="fill:#1a1a1a;fill-opacity:1;stroke:#000000;stroke-width:0.0956964;stroke-opacity:1"
       d="m 365.22766,209.8286 -4.31324,-2.32958 -1.29114,-5.06601 -0.53154,-5.3192 0.19734,-10.88747 c 0.10854,-5.98811 0.39012,-23.42072 0.62575,-38.73913 0.23562,-15.31841 0.4743,-28.00036 0.53041,-28.18211 0.12607,-0.40841 -0.17019,-0.60999 12.80841,8.71499 l 10.29585,7.39745 5.41177,1.86094 5.41178,1.86093 5.05452,-0.35665 5.05453,-0.35665 5.06393,-3.3444 c 2.78517,-1.83943 7.22878,-5.03639 9.87468,-7.10438 11.28424,-8.8195 12.29399,-9.55164 12.66364,-9.18199 0.0507,0.0507 -0.004,5.69571 -0.12155,12.54441 l -0.21376,12.45218 -1.22682,2.13794 -1.22682,2.13794 -2.6342,0.8052 -2.6342,0.80521 -21.03971,0.13627 -21.03972,0.13627 -6.07673,2.26467 -6.07672,2.26466 -3.29156,5.04056 -3.29156,5.04056 -0.90228,6.14842 -0.90228,6.14843 0.43245,2.02557 c 0.23785,1.11407 0.80696,3.79162 1.26467,5.95013 0.74866,3.53051 0.91023,3.99819 1.60921,4.65797 1.15759,1.09265 9.61678,8.1465 10.30739,8.59499 0.32862,0.21341 3.71067,1.0218 7.51568,1.79643 l 6.91818,1.40841 24.09844,0.008 c 21.09572,0.007 25.54968,-0.0607 35.74549,-0.54319 l 11.64706,-0.55119 6.68421,-2.35149 c 3.67631,-1.29331 6.75266,-2.45093 6.83632,-2.57248 0.0837,-0.12156 1.58748,-2.09469 3.34183,-4.38475 1.75435,-2.29006 3.30948,-4.39162 3.45584,-4.67013 0.33649,-0.64032 0.46676,-1.79971 1.09529,-9.74809 0.46218,-5.84483 0.51143,-8.74735 0.5198,-30.63682 0.005,-13.29917 0.0855,-24.80658 0.17864,-25.57201 l 0.1694,-1.3917 5.82353,-0.931 c 5.63586,-0.901 6.11319,-0.93664 14.81202,-1.10585 l 8.98849,-0.17484 4.41386,1.54459 c 2.42762,0.84952 4.47953,1.65084 4.5598,1.78071 0.0802,0.12987 0.59388,2.4408 1.14138,5.1354 l 0.99545,4.89928 -1.8401,3.33929 c -1.01205,1.83661 -2.03071,3.39468 -2.26368,3.46237 -0.23297,0.0677 -2.58842,0.64559 -5.23433,1.2842 -2.64591,0.63861 -7.20345,1.86028 -10.12788,2.71481 l -5.31713,1.5537 -4.60132,4.3984 -4.60132,4.39839 -1.65074,5.11794 c -2.5884,8.02503 -2.48198,6.46863 -0.95866,14.01959 0.98064,4.86096 1.4645,6.74633 1.8819,7.3328 0.30902,0.4342 2.55578,3.02127 4.9928,5.74905 3.78683,4.23863 4.57817,5.00076 5.44373,5.24278 7.33883,2.052 12.38667,3.55614 15.84878,4.72259 l 3.3513,1.90799 1.95742,2.50564 c 1.43354,1.83503 -0.14534,5.51031 -0.14421,5.62683 10e-4,0.11652 -0.40036,1.71643 -2.01668,3.27264 l -3.27199,3.15031 -55.21013,0.16458 c -30.36558,0.0905 -63.01494,0.21662 -72.55413,0.28023 l -17.34399,0.11566 z"
       id="path15"
       sodipodi:nodetypes="ccccsssscccccsssscccccccccccccssssscsscssssssscsscssscsssscccsssssscscscsscc"
       inkscape:export-filename="path15.png"
       inkscape:export-xdpi="96"
       inkscape:export-ydpi="96" /><path
       style="fill:#f9f9f9;stroke-width:0.511503"
       d="m 1603.7228,893.23172 -213.153,-0.89228 -31.6457,-7.715 c -17.4051,-4.24325 -32.3258,-8.11476 -33.1571,-8.60333 -0.8314,-0.48857 -10.8863,-8.18884 -22.3443,-17.11169 l -20.8329,-16.22337 -6.7293,-14.32223 c -8.7607,-18.64577 -9.9981,-22.22802 -13.9378,-40.35131 l -3.3048,-15.20222 V 601.13517 429.46006 l 12.5185,-23.73898 12.5185,-23.73898 26.3904,-13.21801 26.3904,-13.21802 28.4204,-0.92023 28.4204,-0.92024 50.3989,33.59352 c 27.7195,18.47644 50.998,33.59353 51.73,33.59353 0.7321,0 24.2506,-16.74774 52.2634,-37.2172 l 50.9323,-37.21719 21.1695,0.15148 c 11.6431,0.0833 26.8308,0.54007 33.7504,1.01501 l 12.581,0.86354 29.6628,33.83381 29.6628,33.83381 0.014,18.27026 c 0.01,10.04865 -0.8422,56.28764 -1.8884,102.75334 l -1.9021,84.48307 -13.2884,13.26651 -13.2884,13.26651 -92.028,2.69706 c -50.6154,1.48338 -104.9694,3.09993 -120.7867,3.59232 l -28.7587,0.89529 v 8.07758 8.07757 l 16.5785,-0.79306 c 9.1182,-0.43617 60.1227,-1.11223 113.3433,-1.50233 53.2206,-0.39009 109.3024,-1.08218 124.6262,-1.53796 l 27.8615,-0.8287 0.9281,-123.21723 0.9281,-123.21722 7.6701,-9.58494 c 4.2185,-5.27172 15.7383,-19.39381 25.5994,-31.38243 l 17.9294,-21.79749 28.1655,-1.88618 c 18.0151,-1.20644 49.9273,-1.84065 88.5512,-1.75983 l 60.3859,0.12636 29.7359,16.41776 c 27.9298,15.42051 30.0292,16.85145 34.5623,23.55732 2.6545,3.92675 10.8756,16.01569 18.2692,26.86431 9.0703,13.30885 13.7312,21.45268 14.3293,25.03702 0.4875,2.92174 2.7038,17.56468 4.9252,32.53985 l 4.039,27.2276 -12.4915,27.76113 -12.4915,27.76114 -19.7179,16.06228 -19.7178,16.06228 -36.1069,12.18017 -36.1069,12.18018 0.012,5.41341 0.012,5.41341 37.9392,11.40283 37.9392,11.40285 20.8206,25.01039 c 19.5392,23.47107 21.1272,25.80954 25.8016,37.99453 8.3447,21.75283 9.4585,29.7913 7.5183,54.26139 -1.9569,24.6796 -6.2686,40.67245 -16.419,60.90086 -8.5246,16.98821 -25.8481,35.80721 -40.8416,44.36723 l -10.1533,5.79668 -44.5106,6.95001 -44.5107,6.95 -46.014,0.22748 c -25.3077,0.12511 -141.9328,-0.17404 -259.167,-0.6648 z m 353.6176,-108.11014 c 8.0492,-7.86048 9.5385,-10.11935 12.0031,-18.20613 3.4396,-11.28544 2.7628,-16.74691 -2.9724,-23.98827 -7.5975,-9.59266 -14.8011,-12.77086 -55.4373,-24.45892 -17.8865,-5.14464 -24.6323,-7.69768 -27.5593,-10.43016 -7.4246,-6.9313 -33.6571,-37.42906 -34.8158,-40.4767 -2.2117,-5.81699 -9.3526,-42.44171 -9.3526,-47.96778 0,-3.04545 3.0337,-15.04681 6.7416,-26.66967 l 6.7415,-21.13249 17.5234,-16.58781 17.5234,-16.58782 26.1474,-7.25637 c 14.3811,-3.99101 32.0076,-8.65556 39.17,-10.36566 l 13.0225,-3.10927 5.4348,-8.91038 c 10.7194,-17.57474 10.3244,-15.07724 5.8118,-36.74566 -2.195,-10.5396 -4.2413,-19.41329 -4.5473,-19.7193 -0.306,-0.306 -8.3212,-3.2948 -17.8115,-6.64177 l -17.2551,-6.0854 -36.7327,1.25109 c -26.5474,0.90419 -42.0673,2.1054 -55.9716,4.33209 l -19.2388,3.08099 -0.7052,5.50851 c -0.3879,3.02967 -0.9681,51.18415 -1.2895,107.00994 -0.438,76.10256 -1.0816,106.29768 -2.5717,120.66866 -1.0932,10.54197 -2.4543,19.9816 -3.0248,20.97697 -4.9603,8.65446 -26.1707,35.1297 -28.9719,36.16312 -1.8995,0.70079 -12.8933,4.75453 -24.4307,9.00831 l -20.9769,7.73415 -33.1572,1.77795 c -18.2364,0.97787 -78.2237,2.20223 -133.3052,2.72081 -111.6542,1.05118 -100.736,1.69286 -144.6438,-8.50087 l -14.722,-3.41789 -19.9262,-16.67479 c -11.5946,-9.70267 -20.567,-18.26774 -21.4587,-20.48456 -0.8429,-2.09538 -3.3794,-12.55689 -5.6366,-23.24781 l -4.104,-19.43803 3.4128,-22.85791 3.4129,-22.85792 12.2316,-18.8209 c 6.7274,-10.35148 13.2711,-19.23265 14.5416,-19.73594 1.2705,-0.50329 11.9237,-4.51692 23.6739,-8.91917 l 21.364,-8.00409 h 78.0376 78.0376 l 10.8967,-3.36551 c 10.7369,-3.31617 10.965,-3.47986 15.561,-11.16516 l 4.6643,-7.79965 0.5506,-48.38236 c 0.4557,-40.04694 0.235,-48.38141 -1.281,-48.3769 -1.0073,0.003 -8.2261,4.88954 -16.0417,10.85897 -40.2989,30.77959 -56.2745,42.5568 -71.1933,52.48364 l -16.3825,10.90077 -18.3415,1.46457 -18.3414,1.46457 -20.643,-7.01208 -20.6429,-7.01209 -36.0013,-25.9362 c -41.3891,-29.81781 -51.2914,-36.55499 -52.2782,-35.56825 -0.7649,0.76496 -4.3989,198.19149 -4.9268,267.66781 -0.3084,40.57784 -0.1736,43.23545 2.7977,55.19159 l 3.1217,12.56099 8.3357,4.35591 c 4.5847,2.39576 11.0763,4.71806 14.4258,5.16067 3.3496,0.44261 131.2414,0.5223 284.2041,0.17709 l 278.1139,-0.62764 z"
       id="path1"
       transform="scale(0.26458333)" /><path
       style="fill:#1a1a1a;stroke-width:0.255752"
       d="M 1215.3106,619.49714 V 318.03785 h 443.5613 443.5613 v 301.45929 301.45928 h -443.5613 -443.5613 z m 737.5772,267.54894 44.3223,-6.85591 7.1159,-4.00201 c 9.4439,-5.31121 15.2211,-9.69992 23.0971,-17.54583 9.5195,-9.48314 16.6004,-19.33903 22.5631,-31.40557 10.1702,-20.58134 14.1262,-36.75582 15.8886,-64.9639 1.2406,-19.85532 -0.9153,-31.40688 -9.7871,-52.43944 -3.579,-8.48505 -5.3038,-10.83237 -28.8453,-39.25517 l -15.9815,-19.29545 -35.7842,-10.76453 c -19.6813,-5.92049 -36.7738,-11.06795 -37.9833,-11.4388 l -2.1992,-0.67427 v -5.20632 -5.20632 l 36.1928,-12.22583 36.1929,-12.22583 19.7353,-16.11896 19.7353,-16.11896 12.4825,-27.74373 12.4826,-27.74373 -4.4942,-30.11209 c -4.3619,-29.2246 -4.5699,-30.27165 -7.0608,-35.52551 -2.2182,-4.67888 -23.111,-36.61436 -30.6106,-46.78935 -4.7582,-6.45572 -7.961,-8.53286 -42.9624,-27.8624 l -21.0493,-11.62447 -51.6934,0.002 c -54.1993,0.002 -83.0527,0.68182 -109.5133,2.58118 l -15.866,1.13887 -8.3687,10.15014 c -4.6029,5.58258 -16.127,19.65935 -25.6093,31.28172 l -17.2404,21.13157 -0.9777,122.93555 c -0.5378,67.61455 -1.1173,123.07506 -1.2878,123.24558 -0.7012,0.70117 -38.632,1.47052 -106.6219,2.16262 -84.9066,0.8643 -161.0136,2.00008 -169.3382,2.52713 l -5.9209,0.37485 v -7.80347 -7.80349 l 6.2592,-0.38574 c 3.4426,-0.21215 12.3494,-0.55253 19.7928,-0.75638 13.8948,-0.38054 126.4279,-3.67576 183.6839,-5.37867 l 32.1084,-0.95497 13.299,-13.41135 13.2991,-13.41134 0.8067,-38.90889 c 0.4437,-21.39989 1.2426,-59.15842 1.7754,-83.90786 0.5328,-24.74943 0.9756,-53.47588 0.984,-63.83654 l 0.015,-18.83757 -29.5939,-33.75632 c -28.4941,-32.50183 -29.6949,-33.76993 -32.3113,-34.12256 -5.7596,-0.77626 -31.8966,-1.69718 -48.1963,-1.69815 l -17.0584,-10e-4 -35.0456,25.57305 c -36.4414,26.59157 -55.4721,40.31396 -63.3487,45.67845 -4.2127,2.86915 -4.7489,3.06474 -6.0901,2.22151 -8.9924,-5.65365 -39.0931,-25.4488 -66.5141,-43.7418 l -33.9164,-22.62611 -28.6762,0.90131 -28.6762,0.90131 -26.3194,13.3601 -26.3195,13.3601 -12.4202,23.52025 -12.4203,23.52025 v 172.42791 172.42792 l 3.0924,13.77027 c 3.8637,17.2043 5.8833,23.04957 14.1101,40.83733 l 6.5722,14.2102 20.9784,16.24023 c 11.5381,8.93213 21.6809,16.61088 22.5395,17.06388 0.8586,0.45301 15.7096,4.32893 33.002,8.61313 l 31.4409,7.78948 127.4925,0.57936 c 70.1209,0.31866 186.7186,0.63252 259.106,0.69748 l 131.6136,0.11811 z"
       id="path2"
       transform="scale(0.26458333)" /></g></svg>
